<svg id="Main_-_Add_Group_icon" data-name="Main - Add Group icon" xmlns="http://www.w3.org/2000/svg" width="20" height="20" viewBox="0 0 20 20">
  <rect id="Background" width="20" height="20" transform="translate(0)" fill="none"/>
  <path id="Organization" d="M15741.689,21068.768a5.981,5.981,0,0,1-2.191-.914,1.176,1.176,0,0,1-1.626-1.625,6.015,6.015,0,0,1-.915-2.193,1.195,1.195,0,0,1,0-2.342,6.021,6.021,0,0,1,.914-2.191,1.177,1.177,0,0,1,1.626-1.627,6.026,6.026,0,0,1,2.192-.914,1.195,1.195,0,0,1,2.342,0,6.012,6.012,0,0,1,2.192.914,1.177,1.177,0,0,1,1.626,1.627,6.023,6.023,0,0,1,.915,2.191,1.195,1.195,0,0,1,0,2.342,6.032,6.032,0,0,1-.915,2.193,1.176,1.176,0,0,1-1.626,1.625,6.015,6.015,0,0,1-2.192.916,1.2,1.2,0,0,1-2.342,0Zm2.252-.8a5.171,5.171,0,0,0,1.769-.736,1.185,1.185,0,0,1,1.518-1.516,5.242,5.242,0,0,0,.736-1.77,1.2,1.2,0,0,1,0-2.162,5.232,5.232,0,0,0-.736-1.768,1.186,1.186,0,0,1-1.518-1.518,5.209,5.209,0,0,0-1.769-.736,1.2,1.2,0,0,1-2.161,0,5.209,5.209,0,0,0-1.769.736,1.187,1.187,0,0,1-1.518,1.518,5.213,5.213,0,0,0-.736,1.768,1.2,1.2,0,0,1,0,2.162,5.222,5.222,0,0,0,.736,1.77,1.186,1.186,0,0,1,1.518,1.516,5.171,5.171,0,0,0,1.769.736,1.2,1.2,0,0,1,2.161,0Zm-4.217-3.334h1.725c.245,1.055.717,1.85,1.412,1.85A3.6,3.6,0,0,1,15739.725,21064.633Zm4.549,0H15746a3.607,3.607,0,0,1-3.137,1.85C15743.558,21066.482,15744.029,21065.688,15744.273,21064.633Zm-2,0h1.176c-.187.684-.447,1.045-.588,1.045S15742.459,21065.314,15742.273,21064.633Zm2.136-.8a7.687,7.687,0,0,0,0-1.93h1.923a3.23,3.23,0,0,1,0,1.93Zm-2.288,0a7.337,7.337,0,0,1,0-1.93h1.481a7.421,7.421,0,0,1,0,1.93Zm-2.73,0a3.251,3.251,0,0,1,0-1.93h1.924a7.687,7.687,0,0,0,0,1.93Zm4.883-2.734c-.244-1.053-.716-1.85-1.412-1.85a3.607,3.607,0,0,1,3.137,1.85Zm-2,0c.187-.682.448-1.045.588-1.045s.4.363.588,1.045Zm-2.549,0a3.607,3.607,0,0,1,3.137-1.85c-.7,0-1.167.8-1.412,1.85Z" transform="translate(-15736 -21052.865)" fill="#707070"/>
  <path id="Icon" d="M-868.029-3139.441v-1.353h-1.353a.618.618,0,0,1-.618-.618.618.618,0,0,1,.618-.618h1.353v-1.353a.618.618,0,0,1,.618-.618.618.618,0,0,1,.618.618v1.353h1.353a.618.618,0,0,1,.618.618.618.618,0,0,1-.618.618h-1.353v1.353a.618.618,0,0,1-.618.618A.618.618,0,0,1-868.029-3139.441Z" transform="translate(884.823 3151.412)" fill="#707070"/>
</svg>
