<svg id="Main_-_Add_Office_icon" data-name="Main - Add Office icon" xmlns="http://www.w3.org/2000/svg" width="20" height="20" viewBox="0 0 20 20">
  <rect id="Background" width="20" height="20" fill="none"/>
  <path id="Icon" d="M-868.029-3139.441v-1.353h-1.353a.618.618,0,0,1-.618-.618.618.618,0,0,1,.618-.618h1.353v-1.353a.618.618,0,0,1,.618-.618.618.618,0,0,1,.618.618v1.353h1.353a.618.618,0,0,1,.618.618.618.618,0,0,1-.618.618h-1.353v1.353a.618.618,0,0,1-.618.618A.618.618,0,0,1-868.029-3139.441Z" transform="translate(884.823 3151.412)" fill="#707070"/>
  <path id="Ofiices" d="M14950.035,21115.137v-8.537l4.149.867a1.015,1.015,0,0,1,.8,1v5.652a1.02,1.02,0,0,1-1.02,1.02Zm1.457-2.186a.438.438,0,0,0,.437.438h.874a.438.438,0,0,0,0-.875h-.874a.435.435,0,0,0-.437.438Zm0-1.748a.436.436,0,0,0,.437.436h.874a.437.437,0,1,0,0-.873h-.874a.435.435,0,0,0-.437.438Zm0-1.75a.437.437,0,0,0,.437.438h.874a.437.437,0,1,0,0-.873h-.874a.429.429,0,0,0-.31.127.437.437,0,0,0-.128.309Zm-4.518,5.684v-3.061a1.019,1.019,0,0,0-1.02-1.02h-1.458a1.02,1.02,0,0,0-1.021,1.02v3.061h-1.894a.586.586,0,0,1-.583-.584v-12.279a1.021,1.021,0,0,1,1.188-1.008l6.405.973a1.021,1.021,0,0,1,.857,1.008v11.891Zm-1.166-5.83a.438.438,0,0,0,.437.438h.875a.438.438,0,0,0,0-.875h-.875A.437.437,0,0,0,14945.809,21109.307Zm-2.914,0a.438.438,0,0,0,.437.438h.875a.438.438,0,0,0,0-.875h-.875a.435.435,0,0,0-.437.438Zm2.914-1.748a.436.436,0,0,0,.437.436h.875a.437.437,0,1,0,0-.873h-.875A.437.437,0,0,0,14945.809,21107.559Zm-2.914,0a.436.436,0,0,0,.437.436h.875a.437.437,0,1,0,0-.873h-.875a.435.435,0,0,0-.437.438Zm2.914-1.75a.437.437,0,0,0,.437.438h.875a.437.437,0,1,0,0-.873h-.875A.436.436,0,0,0,14945.809,21105.809Zm-2.914,0a.437.437,0,0,0,.437.438h.875a.437.437,0,1,0,0-.873h-.875a.429.429,0,0,0-.31.127.437.437,0,0,0-.128.309Zm2.914-1.748a.437.437,0,0,0,.437.438h.875a.438.438,0,0,0,0-.875h-.875A.438.438,0,0,0,14945.809,21104.061Zm-2.914,0a.437.437,0,0,0,.437.438h.875a.438.438,0,0,0,0-.875h-.875a.438.438,0,0,0-.437.438Z" transform="translate(-14941 -21098.195)" fill="#707070"/>
</svg>
