<svg xmlns="http://www.w3.org/2000/svg" width="25" viewBox="0 0 492 512">
  <g id="Icon_Auto_Booking" data-name="Icon Auto Booking" transform="translate(-4021 -599)">
    <path id="Bottom_object" data-name="Bottom object" d="M-428-2998H-782a68.567,68.567,0,0,1-26.858-5.422,68.776,68.776,0,0,1-21.933-14.787,68.773,68.773,0,0,1-14.787-21.932A68.57,68.57,0,0,1-851-3067c11.666,15.674,26.5,26.847,44.085,33.207,13.5,4.883,23.963,5.131,25.922,5.131.17,0,.264,0,.277,0h351.433c.027,0,.122,0,.279,0,1.959,0,12.417-.247,25.919-5.13,17.587-6.36,32.419-17.532,44.085-33.208a68.57,68.57,0,0,1-5.422,26.858,68.776,68.776,0,0,1-14.787,21.932,68.773,68.773,0,0,1-21.932,14.787A68.568,68.568,0,0,1-428-2998Z" transform="translate(4872 4109)"/>
    <path id="Main_outline" data-name="Main outline" d="M-429-2608H-781a69.561,69.561,0,0,1-27.247-5.5,69.769,69.769,0,0,1-22.25-15,69.767,69.767,0,0,1-15-22.25A69.565,69.565,0,0,1-851-2678v-305a69.565,69.565,0,0,1,5.5-27.247,69.769,69.769,0,0,1,15-22.25,69.769,69.769,0,0,1,22.25-15A69.567,69.567,0,0,1-781-3053h13v37h-11a35.039,35.039,0,0,0-35,35v301a35.039,35.039,0,0,0,35,35h347a35.039,35.039,0,0,0,35-35v-301a35.039,35.039,0,0,0-35-35h-10v-37h13a69.569,69.569,0,0,1,27.247,5.5,69.77,69.77,0,0,1,22.25,15,69.769,69.769,0,0,1,15,22.25A69.564,69.564,0,0,1-359-2983v305a69.564,69.564,0,0,1-5.5,27.247,69.765,69.765,0,0,1-15,22.25,69.767,69.767,0,0,1-22.25,15A69.563,69.563,0,0,1-429-2608Zm-71-408v-37h26v37h-26Zm-59,0v-37h27v37h-27Zm-42,0h-17v-37h27v37h-10Zm-76,0v-37h27v37h-27Zm-59,0v-37h27v37h-27Z" transform="translate(4872 3673)"/>
    <g id="Thermals" transform="translate(-1)">
      <path id="Thermal_6" data-name="Thermal 6" d="M-826.5-2928a24.341,24.341,0,0,1-17.325-7.176A24.339,24.339,0,0,1-851-2952.5a24.311,24.311,0,0,1,2.157-10.068A24.412,24.412,0,0,1-843-2970.61V-3051h.007A16.411,16.411,0,0,1-838-3062.33a16.411,16.411,0,0,1,11.5-4.67,16.41,16.41,0,0,1,11.5,4.67,16.407,16.407,0,0,1,4.99,11.33H-810v80.39a24.414,24.414,0,0,1,5.843,8.043A24.309,24.309,0,0,1-802-2952.5a24.339,24.339,0,0,1-7.176,17.323A24.339,24.339,0,0,1-826.5-2928Zm.5-132a8.009,8.009,0,0,0-8,8v100a8.009,8.009,0,0,0,8,8,8.009,8.009,0,0,0,8-8v-100A8.009,8.009,0,0,0-826-3060Z" transform="translate(4947 3666)"/>
      <path id="Thermal_5" data-name="Thermal 5" d="M-826.5-2928a24.341,24.341,0,0,1-17.325-7.176A24.339,24.339,0,0,1-851-2952.5a24.311,24.311,0,0,1,2.157-10.068A24.412,24.412,0,0,1-843-2970.61V-3051h.007A16.411,16.411,0,0,1-838-3062.33a16.411,16.411,0,0,1,11.5-4.67,16.41,16.41,0,0,1,11.5,4.67,16.407,16.407,0,0,1,4.99,11.33H-810v80.39a24.414,24.414,0,0,1,5.843,8.043A24.309,24.309,0,0,1-802-2952.5a24.339,24.339,0,0,1-7.176,17.323A24.339,24.339,0,0,1-826.5-2928Zm.5-132a8.009,8.009,0,0,0-8,8v100a8.009,8.009,0,0,0,8,8,8.009,8.009,0,0,0,8-8v-100A8.009,8.009,0,0,0-826-3060Z" transform="translate(5006 3666)"/>
      <path id="Thermal_4" data-name="Thermal 4" d="M-826.5-2928a24.341,24.341,0,0,1-17.325-7.176A24.339,24.339,0,0,1-851-2952.5a24.311,24.311,0,0,1,2.157-10.068A24.412,24.412,0,0,1-843-2970.61V-3051h.007A16.411,16.411,0,0,1-838-3062.33a16.411,16.411,0,0,1,11.5-4.67,16.41,16.41,0,0,1,11.5,4.67,16.407,16.407,0,0,1,4.99,11.33H-810v80.39a24.414,24.414,0,0,1,5.843,8.043A24.309,24.309,0,0,1-802-2952.5a24.339,24.339,0,0,1-7.176,17.323A24.339,24.339,0,0,1-826.5-2928Zm.5-132a8.009,8.009,0,0,0-8,8v100a8.009,8.009,0,0,0,8,8,8.009,8.009,0,0,0,8-8v-100A8.009,8.009,0,0,0-826-3060Z" transform="translate(5065 3666)"/>
      <path id="Thermal_3" data-name="Thermal 3" d="M-826.5-2928a24.341,24.341,0,0,1-17.325-7.176A24.339,24.339,0,0,1-851-2952.5a24.311,24.311,0,0,1,2.157-10.068A24.412,24.412,0,0,1-843-2970.61V-3051h.007A16.411,16.411,0,0,1-838-3062.33a16.411,16.411,0,0,1,11.5-4.67,16.41,16.41,0,0,1,11.5,4.67,16.407,16.407,0,0,1,4.99,11.33H-810v80.39a24.414,24.414,0,0,1,5.843,8.043A24.309,24.309,0,0,1-802-2952.5a24.339,24.339,0,0,1-7.176,17.323A24.339,24.339,0,0,1-826.5-2928Zm.5-132a8.009,8.009,0,0,0-8,8v100a8.009,8.009,0,0,0,8,8,8.009,8.009,0,0,0,8-8v-100A8.009,8.009,0,0,0-826-3060Z" transform="translate(5125 3666)"/>
      <path id="Thermal_2" data-name="Thermal 2" d="M-826.5-2928a24.341,24.341,0,0,1-17.325-7.176A24.339,24.339,0,0,1-851-2952.5a24.311,24.311,0,0,1,2.157-10.068A24.412,24.412,0,0,1-843-2970.61V-3051h.007A16.411,16.411,0,0,1-838-3062.33a16.411,16.411,0,0,1,11.5-4.67,16.41,16.41,0,0,1,11.5,4.67,16.407,16.407,0,0,1,4.99,11.33H-810v80.39a24.414,24.414,0,0,1,5.843,8.043A24.309,24.309,0,0,1-802-2952.5a24.339,24.339,0,0,1-7.176,17.323A24.339,24.339,0,0,1-826.5-2928Zm.5-132a8.009,8.009,0,0,0-8,8v100a8.009,8.009,0,0,0,8,8,8.009,8.009,0,0,0,8-8v-100A8.009,8.009,0,0,0-826-3060Z" transform="translate(5183 3666)"/>
      <path id="Thermal_1" data-name="Thermal 1" d="M-826.5-2928a24.341,24.341,0,0,1-17.325-7.176A24.339,24.339,0,0,1-851-2952.5a24.311,24.311,0,0,1,2.157-10.068A24.412,24.412,0,0,1-843-2970.61V-3051h.007A16.411,16.411,0,0,1-838-3062.33a16.411,16.411,0,0,1,11.5-4.67,16.41,16.41,0,0,1,11.5,4.67,16.407,16.407,0,0,1,4.99,11.33H-810v80.39a24.414,24.414,0,0,1,5.843,8.043A24.309,24.309,0,0,1-802-2952.5a24.339,24.339,0,0,1-7.176,17.323A24.339,24.339,0,0,1-826.5-2928Zm.5-132a8.009,8.009,0,0,0-8,8v100a8.009,8.009,0,0,0,8,8,8.009,8.009,0,0,0,8-8v-100A8.009,8.009,0,0,0-826-3060Z" transform="translate(5241 3666)"/>
    </g>
    <path id="Tick" d="M25090.2,7286.58l-90.273-68.026A22.955,22.955,0,0,1,24987,7198a23.258,23.258,0,0,1,23.5-23,23.733,23.733,0,0,1,13.951,4.488l.027-.039,79.168,59.658,111.287-119.338a23,23,0,1,1,34.656,30.162l.061.057-123.082,131.986a23.81,23.81,0,0,1-36.35,4.608Z" transform="translate(-20853.998 -6314)"/>
  </g>
</svg>
