<svg id="Main_-_Collapse_Menu_icon" data-name="Main - Collapse Menu icon" xmlns="http://www.w3.org/2000/svg" width="40" height="40" viewBox="0 0 512.002 512">
  <rect id="Background" width="512" height="512" transform="translate(0.002)" fill="none"/>
  <path id="Union_12" data-name="Union 12" d="M72.621,4.182,48.5,28.3,24.379,4.182a14.281,14.281,0,1,0-20.2,20.2L37.539,57.734c.26.309.535.607.826.9a14.357,14.357,0,0,0,20.27,0c.291-.291.564-.592.826-.9L92.816,24.379a14.281,14.281,0,0,0-20.2-20.2Z" transform="translate(74.912 207.5) rotate(90)"/>
  <path id="Union_7" data-name="Union 7" d="M24415,24821.174a48.451,48.451,0,1,1,48.449,48.453,48.45,48.45,0,0,1-48.449-48.453Zm195.807,47.447h-.5a48.452,48.452,0,1,1,0-96.9h268.236a48.452,48.452,0,1,1,0,96.9Zm0-141.361h-.5a48.453,48.453,0,1,1,0-96.906l268.236,0a48.451,48.451,0,1,1,0,96.9Zm0-141.361v.006c-.166,0-.328.006-.5.006a48.452,48.452,0,1,1,0-96.9h268.236a48.452,48.452,0,1,1,0,96.9v.006ZM24415,24537.445a39.952,39.952,0,1,1,0,.008Z" transform="translate(-24414.998 -24423.496)"/>
</svg>
