<svg xmlns="http://www.w3.org/2000/svg" width="25" viewBox="0 0 492.006 512">
  <path  id="company_calendar" data-name="company calendar" d="M24549,19518.906a68.928,68.928,0,0,1-69-68.986c11.674,15.672,26.5,26.844,44.088,33.2,13.506,4.883,23.965,5.133,25.926,5.133.17,0,.264-.006.277-.006h351.43c.025,0,.125.006.281.006,1.955,0,12.416-.25,25.916-5.133,17.592-6.357,32.42-17.523,44.088-33.2a68.931,68.931,0,0,1-69,68.988Zm181-45.99h-180a69.925,69.925,0,0,1-70-69.988l0-304.945a69.945,69.945,0,0,1,70-69.986h12v-5h.006a16.5,16.5,0,0,1,32.99,0l.006,0v5h26v-5h.008a16.5,16.5,0,0,1,32.982,0l.008,0v5h26v-5h.012a16.5,16.5,0,0,1,32.984,0l.006,0v5h27v-5h.012a16.5,16.5,0,0,1,32.984,0l.006,0v5h25v-5h.006a16.5,16.5,0,0,1,32.984,0l.012,0v5h25v-5h.006a16.5,16.5,0,0,1,32.986,0l0,0v5h13a69.938,69.938,0,0,1,70,69.984v304.947a69.921,69.921,0,0,1-70,69.99Zm-213-372.934v300.945a35.035,35.035,0,0,0,35,35l347,0a35.04,35.04,0,0,0,35-34.994l0-300.945a35.041,35.041,0,0,0-35-34.994h-10v38.387a24.525,24.525,0,1,1-33,0v-38.387h-25v38.387a24.515,24.515,0,1,1-33,0v-38.385h-25v38.387a24.516,24.516,0,1,1-33,0l0-38.385h-27v38.387a24.515,24.515,0,1,1-33,0v-38.385h-26v38.387a24.523,24.523,0,1,1-33,0v-38.387h-26v38.387a24.515,24.515,0,1,1-33,0v-38.385h-10a35.033,35.033,0,0,0-35,34.994Zm348-77.984v99.98a8,8,0,0,0,16,0V19022a8,8,0,0,0-16,0Zm-58,0v99.98a8,8,0,0,0,16,0V19022a8,8,0,0,0-16,0Zm-58,0v99.98a8,8,0,0,0,16,0V19022a8,8,0,0,0-16,0Zm-60,0v99.98a8,8,0,0,0,16,0V19022a8,8,0,0,0-16,0Zm-59,0v99.98a8,8,0,0,0,16,0V19022a8,8,0,0,0-16,0Zm-59,0v99.98a8,8,0,0,0,16,0V19022a8,8,0,0,0-16,0Zm260.775,388.146-.369-142.3,15.479-11.182,32.207,25.879v127.6Zm-123.8,0v-52.66l47.887-34.988v87.648Zm-61.168,0v-125.256l11.188-5.076,36.072,54.758v75.574Zm122.961-.33V19312.7l46.9-34.57v131.682Zm-185.162,0V19312.2l47.467-21.342v118.961Zm79.781-152.779-82.119,37.816L24559,19260l124.221-56.883,44.5,64.182,85.584-62.187-20.551-17.117,100.457-19.514-23.365,83.7-22.211-18.484-131.967,96.541Z" transform="translate(-24479.996 -19006.908)"/>
</svg>
