<svg id="Capa_1" enable-background="new 0 0 512 512" height="512" viewBox="0 0 512 512" width="512" xmlns="http://www.w3.org/2000/svg" xmlns:xlink="http://www.w3.org/1999/xlink"><linearGradient id="SVGID_1_" gradientUnits="userSpaceOnUse" x1="256" x2="256" y1="420.831" y2="91.169"><stop offset="0" stop-color="#fd5900"/><stop offset="1" stop-color="#ffde00"/></linearGradient><g><g><g><path d="m505.637 153.527c-5.068-3.589-11.836-3.662-16.963-.22l-86.102 56.733c-3.311 2.212-5.625 5.654-6.387 9.565-.791 3.896.029 7.954 2.256 11.265 4.951 7.383 7.559 15.996 7.559 24.917 0 24.814-20.186 45-45 45s-45-20.186-45-45c0-14.59 7.207-28.345 19.248-36.812 6.768-4.746 8.408-14.092 3.662-20.874l-70.635-100.912c-5.566-8.027-18.984-8.027-24.551 0l-70.634 100.913c-4.746 6.782-3.105 16.128 3.662 20.874 12.041 8.467 19.248 22.222 19.248 36.812 0 24.814-20.186 45-45 45s-45-20.186-45-45c0-8.921 2.607-17.534 7.559-24.917 2.227-3.311 3.047-7.368 2.256-11.265-.762-3.911-3.076-7.354-6.387-9.565l-86.102-56.733c-5.156-3.442-11.895-3.369-16.963.22-5.068 3.574-7.412 9.888-5.918 15.894l60.995 240c1.875 7.559 9.199 12.612 17.021 11.162 117.832-19.629 237.246-19.629 355.078 0 .82.146 1.67.205 2.461.205 6.768 0 12.861-4.6 14.561-11.367l60.995-240c1.493-6.007-.85-12.321-5.919-15.895z" fill="url(#SVGID_1_)"/></g></g></g></svg>
