<svg xmlns="http://www.w3.org/2000/svg" width="25" viewBox="0 0 508.328 512">
  <path id="employee" d="M24611.4,19519v-14.988a103.907,103.907,0,0,1,68.9-97.715,72.64,72.64,0,1,1,107.787-.07,103.907,103.907,0,0,1,69.113,97.787V19519Zm218.564-124.615a102.605,102.605,0,0,0-93.037-139.328,72.6,72.6,0,1,1,116.271,86,103.9,103.9,0,0,1,70.355,98.217l0,14.973-46.012.063a134.474,134.474,0,0,0-47.543-59.91Zm-285.223,59.865v-14.971a103.894,103.894,0,0,1,70.355-98.219,72.6,72.6,0,1,1,116.275-86,102.61,102.61,0,0,0-92.951,139.479,134.5,134.5,0,0,0-47.352,59.779Zm399.215-64.656a133.943,133.943,0,0,0-48.924-60.867,102.576,102.576,0,0,0-93.279-138.4,72.6,72.6,0,1,1,116.217,86.086,103.925,103.925,0,0,1,70.357,98.225l0,15.008ZM24480,19374.6a103.912,103.912,0,0,1,70.357-98.225,72.6,72.6,0,1,1,116.219-86.086,102.564,102.564,0,0,0-93.281,138.4,133.912,133.912,0,0,0-48.926,60.871l-44.369.047Zm198.291-183.969v-75.555h-61.865L24734.2,19007l117.75,108.111H24788.6v75.688a78.5,78.5,0,0,1-110.279-.133Z" transform="translate(-24480 -19007)"/>
</svg>
