<svg xmlns="http://www.w3.org/2000/svg" width="25" viewBox="0 0 491.916 512">
  <path id="Event" d="M24548.988,19518.908a68.921,68.921,0,0,1-68.99-68.988c11.672,15.672,26.5,26.846,44.08,33.2,13.5,4.883,23.959,5.133,25.92,5.133.17,0,.264-.006.277-.006h351.365c.025,0,.125.006.281.006,1.955,0,12.414-.25,25.912-5.133,17.588-6.357,32.414-17.525,44.08-33.2a68.925,68.925,0,0,1-68.988,68.99Zm180.967-45.992h-179.967a69.918,69.918,0,0,1-69.988-69.986l0-304.945a69.935,69.935,0,0,1,69.986-69.986h12v-5h.006a16.5,16.5,0,0,1,32.984,0l.006,0v5h26v-5h.008a16.5,16.5,0,0,1,32.975,0l.008,0v5h26v-5h.006a16.5,16.5,0,0,1,32.98,0l0,0v5h26.994v36.992h-26.994v38.387a24.521,24.521,0,1,1-32.994,0v-38.387h-26v38.387a24.518,24.518,0,1,1-32.99,0l0-38.387h-26v38.387a24.511,24.511,0,1,1-32.994,0v-38.385h-10a35.031,35.031,0,0,0-34.992,34.994l0,300.945a35.027,35.027,0,0,0,34.994,34.994l346.936,0a35.034,35.034,0,0,0,34.992-34.992l0-300.945a35.037,35.037,0,0,0-34.994-34.994h-10v38.387a24.52,24.52,0,1,1-32.99,0l0-38.387h-25v38.387a24.512,24.512,0,1,1-32.994,0v-38.387h-25v38.387a24.511,24.511,0,1,1-32.994,0V19023h.012a16.5,16.5,0,0,1,32.98,0l0,0v5h25v-5h.006a16.5,16.5,0,0,1,32.98,0l.01,0v5h25v-5h.006a16.5,16.5,0,0,1,32.979,0l0,0v5h13a69.928,69.928,0,0,1,69.988,69.984v304.947a69.915,69.915,0,0,1-69.986,69.988ZM24864.932,19022v99.982a8,8,0,0,0,16,0V19022a8,8,0,0,0-16,0Zm-57.99,0v99.982a8,8,0,0,0,16,0V19022a8,8,0,0,0-16,0Zm-57.988,0v99.982a8,8,0,0,0,16,0V19022a8,8,0,0,0-16,0Zm-59.99,0v99.982a8,8,0,0,0,16,0V19022a8,8,0,0,0-16,0Zm-58.988,0v99.982a8,8,0,0,0,16,0V19022a8,8,0,0,0-16,0Zm-58.99,0v99.982a8,8,0,0,0,16,0V19022a8,8,0,0,0-16,0Zm154.973,348.279-81.572,42.645,15.373-90.725-65.781-64.371,91.064-13.422,40.916-82.432,40.91,82.436,91.064,13.422-65.781,64.371,15.371,90.725Z" transform="translate(-24479.998 -19006.91)"/>
</svg>
