<svg id="Icon_-_Edit_and_Save" data-name="Icon - Edit and Save" xmlns="http://www.w3.org/2000/svg" width="30" height="30" viewBox="0 0 30 30">
  <path id="edit" d="M26.265,30H3.765a3.614,3.614,0,0,1-2.652-1.1,3.611,3.611,0,0,1-1.1-2.654V3.724a3.571,3.571,0,0,1,1.1-2.639A3.636,3.636,0,0,1,3.765,0H20.641L16.89,3.723H5.64a1.788,1.788,0,0,0-1.333.557A1.827,1.827,0,0,0,3.765,5.6V24.367A1.791,1.791,0,0,0,4.321,25.7a1.824,1.824,0,0,0,1.318.543h18.75a1.853,1.853,0,0,0,1.875-1.877V13.108l3.75-3.754V26.245A3.753,3.753,0,0,1,26.265,30ZM9.39,16.392l4.219,4.223L7.516,22.492Zm6.094,2.815L10.8,14.545,24.829.469a1.734,1.734,0,0,1,2.372,0l2.315,2.346A1.627,1.627,0,0,1,30,3.973a1.569,1.569,0,0,1-.484,1.187Z" transform="translate(-0.015 0.001)" fill="#fff"/>
</svg>
