<svg xmlns="http://www.w3.org/2000/svg" width="34.19" height="30.001" viewBox="0 0 34.19 30.001">
  <g id="Icon_-_Edit_and_Save" data-name="Icon - Edit and Save" transform="translate(0 0.001)">
    <path id="Path_492" data-name="Path 492" d="M0,55.053V31.278A1.69,1.69,0,0,1,1.706,29.6H23.129l-3.4,3.35H3.4V53.374H24.164V44.7l3.4-3.35v13.7a1.7,1.7,0,0,1-1.706,1.679H1.706A1.69,1.69,0,0,1,0,55.053ZM14.83,42.188l-3.636-3.577a2.647,2.647,0,0,0-3.7,0,2.54,2.54,0,0,0-.769,1.823A2.513,2.513,0,0,0,7.5,42.25l5.482,5.394a2.647,2.647,0,0,0,3.7,0L33.421,31.168a2.537,2.537,0,0,0,0-3.639,2.647,2.647,0,0,0-3.7,0Z" transform="translate(0 -26.776)" fill="#fff"/>
  </g>
</svg>
