<svg xmlns="http://www.w3.org/2000/svg" xmlns:xlink="http://www.w3.org/1999/xlink" width="40" height="40" viewBox="0 0 55 30">
  <defs>
    <clipPath id="clip-path">
      <rect id="Table" width="40" height="30" rx="10" transform="translate(0)" fill="#fff" stroke="#707070" stroke-width="1"/>
    </clipPath>
    <linearGradient id="linear-gradient" x1="0.929" y1="0.91" x2="0.071" y2="0.138" gradientUnits="objectBoundingBox">
      <stop offset="0" stop-color="#ef5350"/>
      <stop offset="1" stop-color="#fec400"/>
    </linearGradient>
  </defs>
  <g id="Icon_Delete" data-name="Icon Delete" clip-path="url(#clip-path)">
    <path id="trash" d="M40.136,10.982a.409.409,0,0,1,.306-.137h2.044a.409.409,0,0,1,0,.818H40.9l1.81,15.577H56.056l1.81-15.577H48.711a.409.409,0,1,1,0-.818h9.614a.409.409,0,0,1,.406.456L56.827,27.7a.409.409,0,0,1-.405.362H42.346a.409.409,0,0,1-.406-.362L40.035,11.3a.409.409,0,0,1,.1-.319Zm5.127.681h.672a.409.409,0,1,0,0-.818h-.672a.409.409,0,1,0,0,.818Zm-2.57,1.5,1.351,12.654a.409.409,0,0,0,.407.366l.044,0a.409.409,0,0,0,.364-.45L43.506,13.082a.409.409,0,1,0-.814.087Zm11.625,13.02a.409.409,0,0,0,.406-.366l1.351-12.654a.409.409,0,1,0-.814-.087L53.91,25.736a.409.409,0,0,0,.364.45l.044,0Zm8.54-19.595v2.79a.409.409,0,0,1-.409.409H60.79l-2.3,19.774a.409.409,0,0,1-.406.362H40.681a.409.409,0,0,1-.406-.362l-2.3-19.774H36.318a.409.409,0,0,1-.409-.409V6.594a1.346,1.346,0,0,1,1.344-1.344h3.673V2.981A2.893,2.893,0,0,1,43.715,0H55.052a2.645,2.645,0,0,1,1.554.507.409.409,0,1,1-.478.664A1.832,1.832,0,0,0,55.052.818H43.715a2.075,2.075,0,0,0-1.969,2.163V5.249H42.8V2.981a1.029,1.029,0,0,1,.917-1.111H55.052a1.029,1.029,0,0,1,.917,1.111V5.249h1.052V2.981a.409.409,0,1,1,.818,0V5.249h3.673a1.346,1.346,0,0,1,1.344,1.344ZM43.616,5.249H55.15V2.981a.365.365,0,0,0-.114-.295l-11.322,0a.434.434,0,0,0-.1.292Zm16.35,4.545H38.8l2.245,19.318H57.722Zm2.073-3.2a.527.527,0,0,0-.526-.526H37.254a.527.527,0,0,0-.526.526V8.975H62.039ZM45.826,13.153l.86,12.654a.409.409,0,0,0,.408.381h.028a.409.409,0,0,0,.38-.436L46.643,13.1a.409.409,0,1,0-.817.056Zm5.846,13.035a.409.409,0,0,0,.408-.381l.86-12.654a.409.409,0,1,0-.817-.055l-.86,12.654a.409.409,0,0,0,.381.437h.028Zm-1.879-.409V13.125a.409.409,0,1,0-.818,0V25.779a.409.409,0,1,0,.818,0Z" transform="translate(-21.864 0)" fill="url(#linear-gradient)"/>
  </g>
</svg>
