<svg xmlns="http://www.w3.org/2000/svg" width="25" viewBox="0 0 512 512">
  <path id="Integrated" d="M14352,22247a45,45,0,0,1-45-45v-15h512v15a45,45,0,0,1-45,45Zm-15-90v-271h61v-8.787l-30-30v-23.975c-17.425-6.213-30-23.707-30-43.236a45,45,0,0,1,90,0c0,19.529-12.579,37.023-30,43.236v11.553l30,30V21886h90v-8.787l-30-30v-23.975c-17.425-6.213-30-23.707-30-43.236a45,45,0,0,1,90,0c0,19.529-12.58,37.023-30,43.236v11.553l30,30V21886h30v-21.211l30-30v-11.553c-17.42-6.213-30-23.707-30-43.236a45,45,0,0,1,90,0c0,19.529-12.579,37.023-30,43.236v23.975l-30,30V21886h90v-21.211l30-30v-11.553c-17.42-6.213-30-23.707-30-43.236a45,45,0,0,1,90,0c0,19.529-12.579,37.023-30,43.236v23.975l-30,30V21886h61v271Zm211-78.127V22111h30v-32.131a59.83,59.83,0,0,0,27.737-15.863l27.693,15.99,15-25.984-27.85-16.08a53.673,53.673,0,0,0,0-31.857l27.85-16.08-15-25.984-27.693,15.99a59.834,59.834,0,0,0-27.737-15.865V21931h-30v32.131a59.894,59.894,0,0,0-27.736,15.867l-27.694-15.99-15,25.984,27.844,16.08a53.688,53.688,0,0,0,0,31.857l-27.843,16.08,15,25.984,27.693-15.99a59.879,59.879,0,0,0,27.737,15.9Zm-15-57.869a30,30,0,1,1,30,30,30,30,0,0,1-30-30Z" transform="translate(-14307 -21735)"/>
</svg>
