<svg xmlns="http://www.w3.org/2000/svg" width="25" viewBox="0 0 458.895 512">
  <path id="Leave_Reports" data-name="Leave Reports" d="M24710.58,25344.957a20.011,20.011,0,0,1-4.814-19.775l23.906-78.723a19.972,19.972,0,0,1,5.014-8.348l109.791-109.549a60,60,0,0,1,84.836,84.867l-109.57,109.352a19.944,19.944,0,0,1-8.793,5.123l-80.711,22.359A20.007,20.007,0,0,1,24710.58,25344.957Zm55.908-82.072-11.885,39.125,40.6-11.248,73.648-73.51-28.283-28.283Zm106.254-106.023-3.855,3.855,28.277,28.283,3.881-3.867a20,20,0,1,0-28.3-28.271Zm-304.75,194.1a80.09,80.09,0,0,1-79.992-79.994v-351.971a80.088,80.088,0,0,1,79.992-80l245.869,0a80.085,80.085,0,0,1,79.99,80l0,122.99a20,20,0,1,1-40,0V24919a40.032,40.032,0,0,0-40-40h-245.863a40.037,40.037,0,0,0-39.992,40l0,351.971a40.034,40.034,0,0,0,39.988,40h66.881a20,20,0,1,1,0,40Zm116.006-124.01h-37.947a7.7,7.7,0,0,1-7.674-7.68l-.006-67.094a7.681,7.681,0,0,1,15.361.006l0,59.414H24684v-216.707a7.713,7.713,0,0,1,5.471-7.361l73.688-22.055h-109.383v62.143a7.675,7.675,0,0,1-15.35,0l-.008-69.816a7.7,7.7,0,0,1,7.678-7.678l169.352,0a.493.493,0,0,1,.178-.02,7.724,7.724,0,0,1,7.143,4.883,7.4,7.4,0,0,1,.529,3l0,141.365L24684,25233.857Zm24.416-110.975a18.28,18.28,0,1,0-.033,0Zm-115.99,14.848a7.551,7.551,0,0,1-5.248-2.111h.006l-34.99-35a7.7,7.7,0,0,1,0-10.873l34.99-34.977a7.674,7.674,0,1,1,10.854,10.852l-21.885,21.885h91.545a7.681,7.681,0,1,1-.014,15.361l-91.545,0,21.885,21.883a7.684,7.684,0,0,1-5.572,12.969l.006.01-.006.006Zm122.984-14.848a3.559,3.559,0,1,1-.027,0Z" transform="translate(-24488 -24838.99)"/>
</svg>
