<svg xmlns="http://www.w3.org/2000/svg" width="25" viewBox="0 0 445.758 512">
  <path id="Leave_Manage" data-name="Leave Manage" d="M21843.1,19476.992c-2.629,0-6.6-.887-8.779-2.535l1.311.006a12.6,12.6,0,0,1-5.043-10.053v-47.963H21768.7a12.546,12.546,0,0,1-12.518-12.52l-.006-109.41a12.521,12.521,0,0,1,25.043,0l0,96.889h49.359v-353.4a12.533,12.533,0,0,1,8.922-11.99l120.166-35.963H21781.3v101.318a12.525,12.525,0,0,1-25.051,0v-113.852a12.559,12.559,0,0,1,12.518-12.521h276.17c.094-.006.193-.006.293-.006a12.536,12.536,0,0,1,12.506,12.82l.012,426.17a12.537,12.537,0,0,1-8.936,12l-202.037,60.48a12.586,12.586,0,0,1-3.615.531Zm28.266-241.85a17.949,17.949,0,1,1,.037.053Zm-190.066,24.557a12.421,12.421,0,0,1-8.6-3.449l.006,0-57.062-57.068a12.569,12.569,0,0,1,0-17.721l57.061-57.039a12.517,12.517,0,0,1,17.7,17.7l-35.686,35.68h149.27a12.525,12.525,0,0,1,0,25.051H21654.7l35.684,35.684a12.527,12.527,0,0,1-9.086,21.15l.018.006Zm200.568-24.557a46.127,46.127,0,1,1,.033.053Z" transform="translate(-21611.986 -18965)"/>
</svg>
