<svg xmlns="http://www.w3.org/2000/svg" width="20" height="20" viewBox="0 0 20 20">
  <g id="Main_-_Offices_icon" data-name="Main - Offices icon" transform="translate(0)">
    <rect id="Background" width="20" height="20" fill="none"/>
    <path id="Ofiices" d="M14953.916,21121.1V21108.9l5.933,1.24a1.451,1.451,0,0,1,1.15,1.426v8.08a1.461,1.461,0,0,1-1.458,1.459Zm2.083-3.125a.625.625,0,0,0,.625.625h1.25a.625.625,0,0,0,0-1.25h-1.25a.624.624,0,0,0-.626.625Zm0-2.5a.625.625,0,0,0,.625.625h1.25a.625.625,0,0,0,0-1.25h-1.25a.627.627,0,0,0-.626.625Zm0-2.5a.625.625,0,0,0,.625.625h1.25a.625.625,0,0,0,0-1.25h-1.25a.627.627,0,0,0-.626.625Zm-6.458,8.125v-4.375a1.454,1.454,0,0,0-1.458-1.459H14946a1.455,1.455,0,0,0-1.459,1.459v4.375h-2.708a.836.836,0,0,1-.833-.834v-17.555a1.459,1.459,0,0,1,1.7-1.441l9.157,1.391a1.461,1.461,0,0,1,1.226,1.441v17Zm-1.667-8.336a.624.624,0,0,0,.625.625h1.249a.625.625,0,0,0,0-1.25h-1.249A.624.624,0,0,0,14947.874,21112.768Zm-4.166,0a.625.625,0,0,0,.625.625h1.25a.625.625,0,0,0,0-1.25h-1.25a.627.627,0,0,0-.626.625Zm4.166-2.5a.624.624,0,0,0,.625.625h1.249a.625.625,0,0,0,0-1.25h-1.249A.624.624,0,0,0,14947.874,21110.268Zm-4.166,0a.625.625,0,0,0,.625.625h1.25a.625.625,0,0,0,0-1.25h-1.25a.626.626,0,0,0-.442.184.62.62,0,0,0-.184.441Zm4.166-2.5a.624.624,0,0,0,.625.625h1.249a.625.625,0,0,0,0-1.25h-1.249A.624.624,0,0,0,14947.874,21107.77Zm-4.166,0a.625.625,0,0,0,.625.625h1.25a.625.625,0,0,0,0-1.25h-1.25a.626.626,0,0,0-.442.184.62.62,0,0,0-.184.441Zm4.166-2.5a.624.624,0,0,0,.625.625h1.249a.625.625,0,0,0,0-1.25h-1.249A.626.626,0,0,0,14947.874,21105.27Zm-4.166,0a.625.625,0,0,0,.625.625h1.25a.625.625,0,0,0,0-1.25h-1.25a.627.627,0,0,0-.626.625Z" transform="translate(-14941 -21101.174)" fill="#707070"/>
  </g>
</svg>
