<svg xmlns="http://www.w3.org/2000/svg" width="25" viewBox="0 0 512 508.217">
  <path id="Ofiices" d="M15271.68,21609.469v-312.49l151.88,31.8a37.141,37.141,0,0,1,29.439,36.473v206.881a37.372,37.372,0,0,1-37.332,37.33Zm53.328-80a16,16,0,0,0,16,16h32a16,16,0,1,0,0-32h-32a16,16,0,0,0-16.031,16Zm0-64a16,16,0,0,0,16,16h32a16,16,0,1,0,0-32h-32a16.007,16.007,0,0,0-16.031,16Zm0-64a16,16,0,0,0,16,16h32a16,16,0,1,0,0-32h-32a16.007,16.007,0,0,0-16.031,16Zm-165.322,207.988v-111.994a37.242,37.242,0,0,0-37.332-37.332l-53.361,0a37.233,37.233,0,0,0-37.332,37.33v111.994h-69.332a21.394,21.394,0,0,1-21.327-21.334v-449.463a37.35,37.35,0,0,1,43.513-36.908l234.438,35.629a37.348,37.348,0,0,1,31.362,36.9v435.172Zm-42.7-213.389a16,16,0,0,0,16,16l32,0a16,16,0,1,0,0-32h-32a16.005,16.005,0,0,0-16,16Zm-106.657,0a16,16,0,0,0,16,16h32a16,16,0,1,0,0-32h-32a16.006,16.006,0,0,0-16.035,16Zm106.657-63.994a16,16,0,0,0,16,16h32a16,16,0,1,0,0-32h-32a16.006,16.006,0,0,0-16,16Zm-106.657,0a16,16,0,0,0,16,16h32a16,16,0,1,0,0-32h-32a16,16,0,0,0-16.035,16Zm106.657-64a16,16,0,0,0,16,16h32a16,16,0,1,0,0-32h-32a16.006,16.006,0,0,0-16,16Zm-106.657,0a16,16,0,0,0,16,16h32a16,16,0,1,0,0-32h-32a16,16,0,0,0-16.035,16Zm106.657-64a16,16,0,0,0,16,16l32,0a16,16,0,1,0,0-32h-32a16.01,16.01,0,0,0-16,16Zm-106.657,0a16,16,0,0,0,16,16h32a16,16,0,1,0,0-32h-32a16.006,16.006,0,0,0-16.035,16Z" transform="translate(-14941 -21101.252)"/>
</svg>
