<svg id="Main_-_Organization_icon" data-name="Main - Organization icon" xmlns="http://www.w3.org/2000/svg" width="20" height="20" viewBox="0 0 20 20">
  <rect id="Background" width="20" height="20" fill="none"/>
  <path id="Organization" d="M15744.293,21074.609a8.789,8.789,0,0,1-3.2-1.334,1.714,1.714,0,0,1-2.369-2.369,8.762,8.762,0,0,1-1.334-3.2,1.742,1.742,0,0,1,0-3.414,8.762,8.762,0,0,1,1.334-3.2,1.714,1.714,0,0,1,2.369-2.369,8.789,8.789,0,0,1,3.2-1.334,1.742,1.742,0,0,1,3.414,0,8.782,8.782,0,0,1,3.2,1.334,1.714,1.714,0,0,1,2.369,2.369,8.779,8.779,0,0,1,1.334,3.2,1.742,1.742,0,0,1,0,3.414,8.779,8.779,0,0,1-1.334,3.2,1.714,1.714,0,0,1-2.369,2.369,8.789,8.789,0,0,1-3.2,1.334,1.742,1.742,0,0,1-3.414,0Zm3.282-1.168a7.607,7.607,0,0,0,2.578-1.072,1.73,1.73,0,0,1,2.211-2.213,7.565,7.565,0,0,0,1.073-2.578,1.745,1.745,0,0,1,0-3.148,7.565,7.565,0,0,0-1.073-2.578,1.729,1.729,0,0,1-2.211-2.213,7.607,7.607,0,0,0-2.578-1.072,1.746,1.746,0,0,1-3.15,0,7.607,7.607,0,0,0-2.578,1.072,1.729,1.729,0,0,1-2.212,2.213,7.6,7.6,0,0,0-1.073,2.578,1.744,1.744,0,0,1,0,3.148,7.6,7.6,0,0,0,1.073,2.578,1.73,1.73,0,0,1,2.212,2.213,7.607,7.607,0,0,0,2.578,1.072,1.746,1.746,0,0,1,3.15,0Zm-6.146-4.859h2.514c.356,1.535,1.044,2.7,2.059,2.7A5.249,5.249,0,0,1,15741.43,21068.582Zm6.63,0h2.514a5.256,5.256,0,0,1-4.571,2.7c1.014,0,1.7-1.16,2.057-2.7Zm-2.915,0h1.714c-.272.994-.652,1.523-.856,1.523S15745.414,21069.574,15745.145,21068.582Zm3.112-1.172a11.2,11.2,0,0,0,0-2.812h2.8a4.73,4.73,0,0,1,0,2.813Zm-3.335,0a10.76,10.76,0,0,1,0-2.812h2.159a10.76,10.76,0,0,1,0,2.813Zm-3.979,0a4.71,4.71,0,0,1,0-2.812h2.8a11.2,11.2,0,0,0,0,2.813Zm7.117-3.984c-.356-1.535-1.044-2.7-2.059-2.7a5.257,5.257,0,0,1,4.572,2.7Zm-2.915,0c.272-.994.652-1.523.856-1.523s.585.529.857,1.523Zm-3.715,0a5.256,5.256,0,0,1,4.571-2.7c-1.014,0-1.7,1.16-2.058,2.7Z" transform="translate(-15736 -21056.004)" fill="#707070"/>
</svg>
