<svg xmlns="http://www.w3.org/2000/svg" width="25" viewBox="0 0 512 511.996">
  <path id="Organization" d="M15948.3,21532.3a224.376,224.376,0,0,1-81.792-34.139c-17.312,10.506-39.872,9.094-54.817-5.852s-16.368-37.506-5.852-54.816a224.362,224.362,0,0,1-34.137-81.793c-19.851-4.682-35.7-22.441-35.7-43.7s15.854-39.018,35.7-43.7a224.4,224.4,0,0,1,34.138-81.793c-10.516-17.311-9.093-39.865,5.853-54.816s37.506-16.369,54.816-5.846a224.475,224.475,0,0,1,81.795-34.145c4.681-19.844,22.44-35.7,43.7-35.7s39.016,15.859,43.7,35.7a224.456,224.456,0,0,1,81.793,34.146c17.311-10.525,39.866-9.1,54.816,5.844s16.368,37.506,5.846,54.816a224.474,224.474,0,0,1,34.144,81.793c19.845,4.682,35.7,22.441,35.7,43.7s-15.859,39.016-35.7,43.7a224.559,224.559,0,0,1-34.146,81.793c10.523,17.316,9.1,39.871-5.845,54.816s-37.506,16.363-54.816,5.852a224.418,224.418,0,0,1-81.793,34.141c-4.683,19.848-22.442,35.7-43.7,35.7S15953,21552.1,15948.3,21532.3Zm84.019-29.885a194.615,194.615,0,0,0,66-27.475c-5.342-15.719-2.159-33.744,10.354-46.264s30.545-15.691,46.264-10.355a194.448,194.448,0,0,0,27.471-66,44.7,44.7,0,0,1,0-80.646,194.559,194.559,0,0,0-27.473-66c-15.718,5.33-33.748,2.158-46.263-10.352s-15.7-30.543-10.354-46.264a194.462,194.462,0,0,0-66-27.469,44.7,44.7,0,0,1-80.642,0,194.478,194.478,0,0,0-66,27.469c5.336,15.721,2.159,33.75-10.354,46.264s-30.54,15.693-46.264,10.355a194.557,194.557,0,0,0-27.477,66,44.693,44.693,0,0,1,0,80.641,194.582,194.582,0,0,0,27.478,66c15.718-5.336,33.742-2.16,46.263,10.355s15.691,30.545,10.354,46.264a194.6,194.6,0,0,0,66,27.473,44.694,44.694,0,0,1,80.643,0ZM15875,21378h64.343c9.121,39.314,26.734,69,52.694,69C15941.6,21447,15898.2,21419,15875,21378Zm169.731,0h64.343c-23.2,40.971-66.682,69-117.037,69,25.963,0,43.563-29.7,52.663-69Zm-74.638,0h43.887c-6.972,25.451-16.709,39-21.943,39s-15.037-13.6-21.937-39Zm79.688-30a288.148,288.148,0,0,0,0-72h71.763c3.216,11.535,5.489,23.455,5.489,36s-2.273,24.465-5.489,36Zm-85.382,0a275.011,275.011,0,0,1,0-72h55.275a275.772,275.772,0,0,1,0,72Zm-101.87,0c-3.216-11.535-5.494-23.453-5.494-36s2.278-24.467,5.494-36h71.758a288.892,288.892,0,0,0,0,72Zm182.2-102c-9.126-39.312-26.739-69-52.694-69,50.355,0,93.837,28.029,117.037,69Zm-74.638,0c6.972-25.451,16.709-39,21.943-39s14.972,13.549,21.943,39Zm-95.094,0c23.2-40.969,66.682-69,117.037-69-25.96,0-43.573,29.686-52.694,69Z" transform="translate(-15736 -21056.004)"/>
</svg>
