<svg xmlns="http://www.w3.org/2000/svg" width="25" viewBox="0 0 512 456.852">
  <path id="Organization_chart" data-name="Organization chart" d="M16371.105,23018.809v-8.166a56.584,56.584,0,0,1,37.533-53.225,39.6,39.6,0,1,1,58.717-.035,56.552,56.552,0,0,1,37.643,53.266l0,8.158Zm-189.053,0v-8.166a56.565,56.565,0,0,1,37.529-53.225,39.6,39.6,0,1,1,58.713-.033,56.556,56.556,0,0,1,37.648,53.262l0,8.16Zm-189.053,0v-8.166a56.583,56.583,0,0,1,37.535-53.225,39.6,39.6,0,1,1,58.713-.035,56.562,56.562,0,0,1,37.648,53.264l0,8.16Zm455.791-142.758h-23.34V22835.3H16260.91v40.789h-23.346V22835.3h-164.541v40.789h-23.346v-64.1h187.887v-50.115h23.346v50.115H16448.8v64.1Zm-295.342-132.115v-11.645a80.693,80.693,0,0,1,53.529-75.918,56.483,56.483,0,1,1,83.74-.049,80.677,80.677,0,0,1,53.7,75.973v11.639Z" transform="translate(-15993 -22561.957)"/>
</svg>
