<?xml version="1.0" encoding="iso-8859-1"?>
<!-- Generator: Adobe Illustrator 19.0.0, SVG Export Plug-In . SVG Version: 6.00 Build 0)  -->
<svg version="1.1" id="Layer_1" xmlns="http://www.w3.org/2000/svg" xmlns:xlink="http://www.w3.org/1999/xlink" x="0px" y="0px"
	 viewBox="0 0 512.001 512.001" style="enable-background:new 0 0 512.001 512.001;" xml:space="preserve">
<g>
	<g>
		<g>
			<path d="M426.324,121.704c-0.704-0.704-65.13-65.12-116.48-116.472C306.471,1.856,301.845,0,297.211,0H98.305
				c-9.863,0-17.86,7.996-17.86,17.86v445.015c0,9.863,7.996,17.86,17.86,17.86h97.136v13.387c0,15.848,19.247,23.874,30.488,12.629
				l26.016-26.016h8.111l26.016,26.016c11.164,11.162,30.488,3.37,30.488-12.629v-13.387h97.136c9.863,0,17.86-7.996,17.86-17.86
				V134.333C431.556,129.792,429.721,125.101,426.324,121.704z M315.076,60.979c9.743,9.743,35.816,35.815,55.499,55.498h-55.499
				V60.979z M280.84,451.004l-12.211-12.21c-6.974-6.975-18.283-6.976-25.257,0l-12.211,12.21V412.63
				c15.715,7.089,33.951,7.095,49.68,0V451.004z M280.84,357.403c0,13.696-11.142,24.839-24.839,24.839
				c-13.696,0-24.839-11.141-24.839-24.842c0.007-13.702,11.151-24.85,24.839-24.85c13.688,0,24.833,11.146,24.839,24.85V357.403z
				 M395.835,445.015h-79.275v-87.612v-0.012v-0.009c-0.019-33.387-27.185-60.549-60.559-60.549
				c-33.366,0-60.541,27.154-60.559,60.559v0.012v87.612h-79.277V35.72h163.19v98.617c0,9.863,7.996,17.86,17.86,17.86h98.621
				V445.015z"/>
			<path d="M172.414,152.196h56.799c9.863,0,17.86-7.996,17.86-17.86c0-9.863-7.996-17.86-17.86-17.86h-56.799
				c-9.863,0-17.86,7.996-17.86,17.86C154.554,144.2,162.551,152.196,172.414,152.196z"/>
			<path d="M154.554,197.259c0,9.863,7.996,17.86,17.86,17.86h167.172c9.863,0,17.86-7.996,17.86-17.86
				c0-9.863-7.995-17.86-17.86-17.86H172.414C162.551,179.399,154.554,187.396,154.554,197.259z"/>
			<path d="M339.587,242.321H172.414c-9.863,0-17.86,7.996-17.86,17.86c0,9.863,7.996,17.86,17.86,17.86h167.172
				c9.863,0,17.86-7.996,17.86-17.86C357.446,250.317,349.451,242.321,339.587,242.321z"/>
		</g>
	</g>
</g>
<g>
</g>
<g>
</g>
<g>
</g>
<g>
</g>
<g>
</g>
<g>
</g>
<g>
</g>
<g>
</g>
<g>
</g>
<g>
</g>
<g>
</g>
<g>
</g>
<g>
</g>
<g>
</g>
<g>
</g>
</svg>
