<svg xmlns="http://www.w3.org/2000/svg" width="25" viewBox="0 0 491.986 512">
  <path id="Request_Leave" data-name="Request Leave" d="M26270,19563.979a68.931,68.931,0,0,1-68.99-69c11.662,15.674,26.494,26.842,44.078,33.205,13.5,4.883,23.961,5.131,25.924,5.131.168,0,.262-.008.275-.008H26622.7c.025,0,.119.008.281.008,1.955,0,12.412-.248,25.916-5.131,17.584-6.355,32.416-17.531,44.086-33.207a68.958,68.958,0,0,1-69,69Zm180.992-46H26271a69.931,69.931,0,0,1-70-70l0-304.986a69.938,69.938,0,0,1,70-70l12,0v-5h.006a16.5,16.5,0,0,1,32.988,0h.006v5h26v-5h.008a16.5,16.5,0,0,1,32.982,0h.008v5h26v-5h.014a16.5,16.5,0,0,1,32.98,0h.012v5h27v37h-27v38.391a24.517,24.517,0,1,1-33.006,0V19110h-26v38.391a24.514,24.514,0,1,1-33,0l0-38.391h-26v38.391a24.516,24.516,0,1,1-33,0l0-38.389h-10a35.032,35.032,0,0,0-35,35v300.986a35.036,35.036,0,0,0,35,35l346.986,0a35.034,35.034,0,0,0,35-35V19145a35.033,35.033,0,0,0-35-35h-10v38.391a24.531,24.531,0,1,1-33,0V19110h-25v38.391a24.515,24.515,0,1,1-33,0l0-38.391h-25v38.391a24.515,24.515,0,1,1-33,0l0-80.387h.008a16.5,16.5,0,0,1,32.982,0h.008v5h25v-5h.006a16.5,16.5,0,0,1,32.986,0h.006v5h25v-5h.006a16.5,16.5,0,0,1,32.982,0h.01v5h13a69.958,69.958,0,0,1,70,70v304.984a69.938,69.938,0,0,1-70,70ZM26585.984,19067v100a8,8,0,1,0,16,0v-100a8,8,0,0,0-16,0Zm-58,0v100a8,8,0,0,0,16,0v-100a8,8,0,0,0-16,0Zm-58,0v100a8,8,0,0,0,16,0v-100a8,8,0,0,0-16,0Zm-60,0v100a8,8,0,1,0,16,0v-100a8,8,0,0,0-16,0Zm-59,0v100a8,8,0,0,0,16,0v-100a8,8,0,0,0-16,0Zm-59,0v100a8,8,0,0,0,16,0v-100a8,8,0,0,0-16,0Zm140.889,389.984a7.944,7.944,0,0,1-4.2-1.213h.629a6.036,6.036,0,0,1-2.422-4.812l0-22.947h-29.6a6,6,0,0,1-5.988-5.986v-52.354a5.988,5.988,0,1,1,11.977,0l0,46.363h23.617v-169.1a6,6,0,0,1,4.277-5.732l57.5-17.211h-85.35v48.479a6,6,0,1,1-11.988,0l0-54.475a6.008,6.008,0,0,1,5.994-5.988h132.141a.847.847,0,0,1,.141-.006,6.006,6.006,0,0,1,4.285,1.811,6.125,6.125,0,0,1,1.283,1.986,5.8,5.8,0,0,1,.418,2.338l0,203.918a5.984,5.984,0,0,1-4.271,5.742l-96.672,28.945a6.126,6.126,0,0,1-1.734.25Zm25.49-103.766a11.96,11.96,0,1,0-11.947-11.937l-.018-.027a11.964,11.964,0,0,0,11.98,11.936Zm-107.027-1.861h.006l-27.312-27.3a6.022,6.022,0,0,1,.006-8.482l27.3-27.289a5.988,5.988,0,0,1,8.469,8.467l-17.076,17.076h71.424a5.992,5.992,0,0,1,0,11.984h-71.434l17.076,17.074a5.994,5.994,0,0,1-4.348,10.121h-.031a5.9,5.9,0,0,1-4.037-1.615Zm4.119,1.646h.008Zm95.986-11.723-.012-.027a12.752,12.752,0,1,1,.012.027Z" transform="translate(-26201 -19051.98)"/>
</svg>
