<svg id="Role_and_permission_Icon" data-name="Role and permission Icon" xmlns="http://www.w3.org/2000/svg" width="30.402" height="35.032" viewBox="0 0 30.402 35.032">
  <path id="Path_535" data-name="Path 535" d="M18.576,3.375c-8.4,0-15.2,7.84-15.2,17.516s6.8,17.516,15.2,17.516,15.2-7.84,15.2-17.516S26.973,3.375,18.576,3.375ZM12.108,34.1l3.6-7.225a.369.369,0,0,0-.1-.455,6.626,6.626,0,0,1-2.573-5.078.312.312,0,0,0-.292-.32H5.421v-.126a16.3,16.3,0,0,1,3.851-10.72A13.8,13.8,0,0,1,11.86,7.847l3.691,7.4a.275.275,0,0,0,.395.126,4.9,4.9,0,0,1,5.167-.042.274.274,0,0,0,.387-.126l3.735-7.385a13.755,13.755,0,0,1,2.638,2.358A16.3,16.3,0,0,1,31.724,20.9v.126H24.415a.318.318,0,0,0-.292.32,6.621,6.621,0,0,1-2.573,5.078.369.369,0,0,0-.1.455l3.6,7.225A11.674,11.674,0,0,1,12.108,34.1Z" transform="translate(-3.375 -3.375)"/>
  <path id="Path_536" data-name="Path 536" d="M22.248,18.778c0,2.6-1.832,4.716-4.093,4.716s-4.093-2.111-4.093-4.716,1.832-4.716,4.093-4.716S22.248,16.174,22.248,18.778Z" transform="translate(-2.953 -1.263)"/>
  <path id="Icon_awesome-search" data-name="Icon awesome-search" d="M4.012,3.451,3.22,2.674a.192.192,0,0,0-.135-.055H2.955a1.6,1.6,0,0,0,.35-1A1.637,1.637,0,0,0,1.653,0,1.637,1.637,0,0,0,0,1.622,1.637,1.637,0,0,0,1.653,3.243,1.664,1.664,0,0,0,2.669,2.9v.127a.185.185,0,0,0,.056.133l.792.777a.192.192,0,0,0,.269,0l.225-.221a.186.186,0,0,0,0-.265ZM1.653,2.62a1.007,1.007,0,0,1-1.017-1,1.007,1.007,0,0,1,1.017-1,1.007,1.007,0,0,1,1.017,1A1.007,1.007,0,0,1,1.653,2.62Z" transform="translate(13.168 4.528)" fill="#fff"/>
  <g id="Icon_ionic-ios-people" data-name="Icon ionic-ios-people" transform="translate(21.191 21.117)">
    <path id="Path_537" data-name="Path 537" d="M10.928,11.049c-.132-.059-.347-.062-.442-.107-.066-.032-.171-.068-.2-.119a1.962,1.962,0,0,1-.034-.419.689.689,0,0,0,.116-.206,2.814,2.814,0,0,0,.056-.4s.078.041.108-.153a1.572,1.572,0,0,0,.062-.379c-.014-.124-.068-.094-.068-.094a1.338,1.338,0,0,0,.068-.55.767.767,0,1,0-1.521,0,1.359,1.359,0,0,0,.067.55s-.055-.029-.068.094a1.464,1.464,0,0,0,.062.379c.031.2.108.153.108.153a2.842,2.842,0,0,0,.056.4.689.689,0,0,0,.116.206,1.962,1.962,0,0,1-.034.419c-.034.051-.139.087-.2.118-.094.046-.309.051-.442.11a1.034,1.034,0,0,0-.539.988h3.275A1.033,1.033,0,0,0,10.928,11.049Z" transform="translate(-7.191 -7.748)" fill="#fff"/>
    <path id="Path_538" data-name="Path 538" d="M3.492,13.069a.678.678,0,0,0,.393-.137,2.925,2.925,0,0,1-.121-1.125c-.038-.375-.208-.6-.55-.6h0c-.329,0-.507.223-.545.6s.067.823-.12,1.125a.621.621,0,0,0,.394.122h0a.927.927,0,0,1-.012.247.276.276,0,0,1-.141.081,2.319,2.319,0,0,0-.3.106.642.642,0,0,0-.266.547H3.16a.966.966,0,0,1,.377-.438.657.657,0,0,1,.291-.076s.045-.088-.1-.122a.877.877,0,0,1-.226-.1A.827.827,0,0,1,3.492,13.069Z" transform="translate(-2.215 -10.484)" fill="#fff"/>
    <path id="Path_539" data-name="Path 539" d="M24.2,13.069a.678.678,0,0,1-.393-.137,2.925,2.925,0,0,0,.121-1.125c.038-.375.208-.6.55-.6h0c.329,0,.507.223.545.6s-.067.823.12,1.125a.621.621,0,0,1-.394.122h0a.927.927,0,0,0,.012.247.276.276,0,0,0,.141.081,2.32,2.32,0,0,1,.3.106.642.642,0,0,1,.266.547h-.945a.966.966,0,0,0-.377-.438.657.657,0,0,0-.291-.076s-.045-.088.1-.122a.877.877,0,0,0,.226-.1A.827.827,0,0,0,24.2,13.069Z" transform="translate(-20.194 -10.484)" fill="#fff"/>
  </g>
  <path id="Icon_awesome-laptop-code" data-name="Icon awesome-laptop-code" d="M1.9,2.68a.1.1,0,0,0,.169,0l.084-.116a.209.209,0,0,0,0-.232l-.267-.366L2.157,1.6a.209.209,0,0,0,0-.232l-.084-.116a.1.1,0,0,0-.169,0l-.436.6a.209.209,0,0,0,0,.232l.436.6Zm.717-.116.084.116a.1.1,0,0,0,.169,0l.436-.6a.209.209,0,0,0,0-.232l-.436-.6a.1.1,0,0,0-.169,0l-.084.116a.209.209,0,0,0,0,.232l.267.366-.267.366a.209.209,0,0,0,0,.232Zm2.038,1.7H2.849c-.006.2-.11.328-.244.328H2.15c-.14,0-.247-.179-.245-.328H.119c-.066,0-.119.074-.119.164v.164c0,.361.215.656.478.656H4.3c.263,0,.478-.295.478-.656V4.425C4.778,4.335,4.725,4.261,4.659,4.261ZM4.3.492C4.3.221,4.139,0,3.942,0H.836C.639,0,.478.221.478.492V3.933H4.3ZM3.823,3.278H.956V.656H3.823Z" transform="translate(3.559 20.641)" fill="#fff"/>
</svg>
