<svg xmlns="http://www.w3.org/2000/svg" width="25" viewBox="0 0 491.988 512">
  <path id="Schedule" d="M26270,20106.98a68.925,68.925,0,0,1-68.988-69c11.66,15.674,26.492,26.842,44.076,33.205,13.5,4.885,23.961,5.131,25.924,5.131h351.975c1.955,0,12.412-.246,25.918-5.131,17.582-6.357,32.414-17.531,44.084-33.205a68.928,68.928,0,0,1-69,69Zm180.992-46H26271a69.928,69.928,0,0,1-70-70l0-304.988a69.935,69.935,0,0,1,70-70h12v-5h.006a16.5,16.5,0,0,1,32.986,0l.006,0v5h26v-5h.008a16.5,16.5,0,0,1,32.982,0l.008,0v5h26v-5h.014a16.5,16.5,0,0,1,32.982,0l.012,0v5h27v37h-27v38.391a24.512,24.512,0,1,1-33.008,0V19653h-26v38.391a24.509,24.509,0,1,1-33,0V19653h-26v38.391a24.509,24.509,0,1,1-33,0V19653h-10a35.033,35.033,0,0,0-35,35v300.99a35.03,35.03,0,0,0,35,35h346.986a35.03,35.03,0,0,0,35-35V19688a35.038,35.038,0,0,0-35-35h-10v38.391a24.525,24.525,0,1,1-33,0V19653h-25v38.391a24.508,24.508,0,1,1-33,0V19653h-25v38.391a24.509,24.509,0,1,1-33,0l0-80.389h.008a16.5,16.5,0,0,1,32.984,0l.008,0v5h25v-5h.006a16.5,16.5,0,0,1,32.984,0l.006,0v5h25v-5h.006a16.5,16.5,0,0,1,32.982,0l.01,0v5h13a69.958,69.958,0,0,1,70,70v304.986a69.935,69.935,0,0,1-70,70Zm135-450.982v100a8,8,0,1,0,16,0v-100a8,8,0,1,0-16,0Zm-58,0v100a8,8,0,0,0,16,0v-100a8,8,0,0,0-16,0Zm-58,0v100a8,8,0,0,0,16,0v-100a8,8,0,0,0-16,0Zm-60,0v100a8,8,0,0,0,16,0v-100a8,8,0,0,0-16,0Zm-59,0v100a8,8,0,0,0,16,0v-100a8,8,0,0,0-16,0Zm-59,0v100a8,8,0,0,0,16,0v-100a8,8,0,0,0-16,0Zm18.328,381-11.006-24.986H26276v-20.045h341.986v20.045h-23.3l-11.014,24.986Zm-14.871-65.066a153.642,153.642,0,0,1,126.988-126.869,25.716,25.716,0,1,1,49.123,0,153.637,153.637,0,0,1,126.992,126.869Z" transform="translate(-26200.998 -19594.982)"/>
</svg>
