<svg xmlns="http://www.w3.org/2000/svg" width="25" viewBox="0 0 458.424 511.998">
  <path id="Seat_Map" data-name="Seat Map" d="M24613.064,19527.377v-8.461a58.591,58.591,0,0,1,38.879-55.123,41.016,41.016,0,1,1,60.807-.039,58.6,58.6,0,0,1,39,55.17l0,8.453Zm159.867-.43v-8.463a58.584,58.584,0,0,1,38.871-55.121,41.018,41.018,0,1,1,60.816-.039,58.588,58.588,0,0,1,38.988,55.17v8.453Zm-319.732-.006v-8.463a58.583,58.583,0,0,1,38.873-55.125,41.012,41.012,0,1,1,60.813-.033,58.582,58.582,0,0,1,38.992,55.174l0,8.447Zm159.865-189.271v-8.463a58.58,58.58,0,0,1,38.873-55.123,41.017,41.017,0,1,1,60.813-.041,58.586,58.586,0,0,1,38.994,55.17l0,8.457Zm159.867-.437v-8.463a58.6,58.6,0,0,1,38.875-55.121,41.014,41.014,0,1,1,60.811-.039,58.588,58.588,0,0,1,39,55.176l0,8.447Zm-319.732,0v-8.463a58.586,58.586,0,0,1,38.869-55.121,41.017,41.017,0,1,1,60.809-.039,58.585,58.585,0,0,1,39,55.166l0,8.457Zm159.857-189.271v-8.463a58.594,58.594,0,0,1,38.877-55.121,41.014,41.014,0,1,1,60.809-.037,58.588,58.588,0,0,1,39,55.17v8.451Zm159.867-.432v-8.461a58.582,58.582,0,0,1,38.869-55.127,41.017,41.017,0,1,1,60.814-.035,58.591,58.591,0,0,1,38.994,55.17l0,8.453Zm-319.732,0v-8.461a58.59,58.59,0,0,1,38.875-55.127,41.013,41.013,0,1,1,60.811-.037,58.575,58.575,0,0,1,38.994,55.174l0,8.451Z" transform="translate(-24453.191 -19015.379)"/>
</svg>
