<?xml version="1.0" encoding="UTF-8"?>
<svg xmlns="http://www.w3.org/2000/svg" width="25" viewBox="0 0 512 512"><g><path d="M496,392H464V148a28.031,28.031,0,0,0-28-28H384a7.935,7.935,0,0,0-3.67.9,135.987,135.987,0,0,0-248.66,0A7.935,7.935,0,0,0,128,120H76a28.031,28.031,0,0,0-28,28V392H16a8,8,0,0,0-8,8v44a28.031,28.031,0,0,0,28,28H476a28.031,28.031,0,0,0,28-28V400A8,8,0,0,0,496,392ZM256,56A120,120,0,1,1,136,176,120.134,120.134,0,0,1,256,56Zm0,256c74.99,0,136-61.01,136-136a136.388,136.388,0,0,0-.95-16H424V368H88V160h32.95a136.388,136.388,0,0,0-.95,16C120,250.99,181.01,312,256,312ZM64,148a12.01,12.01,0,0,1,12-12h50.01c-.82,2.63-1.54,5.3-2.2,8H80a8,8,0,0,0-8,8V376a8,8,0,0,0,8,8H432a8,8,0,0,0,8-8V152a8,8,0,0,0-8-8H388.19c-.66-2.7-1.38-5.37-2.2-8H436a12.01,12.01,0,0,1,12,12V392H64ZM300.9,408l-2.67,8H213.77l-2.67-8ZM488,444a12.01,12.01,0,0,1-12,12H36a12.01,12.01,0,0,1-12-12V408H194.23l6.18,18.53A8,8,0,0,0,208,432h96a8,8,0,0,0,7.59-5.47L317.77,408H488Z"/><path d="M256,280A104,104,0,1,0,152,176,104.118,104.118,0,0,0,256,280ZM188.405,119.719l5.369,5.37a8,8,0,0,0,11.315-11.315l-5.37-5.369A87.6,87.6,0,0,1,248,88.368V96a8,8,0,0,0,16,0V88.368a87.6,87.6,0,0,1,48.281,20.037l-5.37,5.369a8,8,0,0,0,11.315,11.315l5.369-5.37A87.609,87.609,0,0,1,343.633,168H336a8,8,0,0,0,0,16h7.633A87.609,87.609,0,0,1,323.6,232.281l-5.369-5.37a8,8,0,1,0-11.315,11.315l5.37,5.369A87.6,87.6,0,0,1,264,263.632V256a8,8,0,0,0-16,0v7.632A87.6,87.6,0,0,1,199.719,243.6l5.37-5.369a8,8,0,0,0-11.315-11.315l-5.369,5.37A87.609,87.609,0,0,1,168.367,184H176a8,8,0,0,0,0-16h-7.633A87.609,87.609,0,0,1,188.405,119.719Z"/><path d="M256,184h24a8,8,0,0,0,0-16H264V128a8,8,0,0,0-16,0v48A8,8,0,0,0,256,184Z"/></g></svg>
