<svg xmlns="http://www.w3.org/2000/svg" width="25" viewBox="0 0 512 511.996">
  <path id="Setting" d="M16189.4,24879.4l-68.279-26.369a9.311,9.311,0,0,1-5.939-8.959l1.037-35.58a210.08,210.08,0,0,1-45.177-43.062l-35.744,2.57c-.23.02-.462.025-.681.025a9.3,9.3,0,0,1-8.5-5.588l-29.347-67.068a9.155,9.155,0,0,1,2.1-10.408l25.738-24.7a234.48,234.48,0,0,1-1.585-62.387l-26.808-23.113a9.36,9.36,0,0,1-2.949-4.814,9.152,9.152,0,0,1,.371-5.584l26.325-68.289a9.3,9.3,0,0,1,8.647-5.934c.132,0,.25,0,.351.008l35.578,1.029a208.9,208.9,0,0,1,43.072-45.131l-2.585-35.729a9.179,9.179,0,0,1,5.532-9.223l67.068-29.311a9.162,9.162,0,0,1,10.4,2.066l24.7,25.77a234.437,234.437,0,0,1,62.387-1.617l23.12-26.773a9.379,9.379,0,0,1,10.438-2.617l68.2,26.363a9.278,9.278,0,0,1,5.977,8.959l-1.031,35.617a209.263,209.263,0,0,1,45.165,43.072l35.688-2.654c.188-.014.381-.02.568-.02a9.5,9.5,0,0,1,5.152,1.492,9.024,9.024,0,0,1,3.461,4.127l29.354,67.031a9.28,9.28,0,0,1-2.061,10.436l-25.781,24.742a232.468,232.468,0,0,1,1.621,62.34l26.775,23.166a9.228,9.228,0,0,1,2.617,10.324l-26.363,68.283a9.4,9.4,0,0,1-8.7,5.938c-.088,0-.174,0-.268-.006l-35.617-1.029a210,210,0,0,1-43.064,45.2l2.621,35.656a9.384,9.384,0,0,1-1.33,5.494,9.259,9.259,0,0,1-4.238,3.723l-67.03,29.354a9.271,9.271,0,0,1-10.433-2.1l-24.74-25.738a233.751,233.751,0,0,1-37.015,2.955,236.674,236.674,0,0,1-25.339-1.367l-23.116,26.8a9.215,9.215,0,0,1-10.365,2.584Zm59.6-107.6c81.492,0,147.784-66.307,147.784-147.816,0-81.459-66.293-147.734-147.785-147.734-81.423.068-147.7,66.355-147.735,147.771l-.075-.031C16101.2,24705.5,16167.5,24771.8,16249,24771.8Zm-105.3-66.469v-12.85a88.948,88.948,0,0,1,59.025-83.711,62.285,62.285,0,1,1,92.353-.061,88.975,88.975,0,0,1,59.205,83.783v12.838Z" transform="translate(-15992.998 -24367.994)"/>
</svg>
