<svg xmlns="http://www.w3.org/2000/svg" width="25" viewBox="0 0 511.998 511.996">
  <path id="Union_8" data-name="Union 8" d="M17595,25150a104.9,104.9,0,0,1,3.037-25.072l-174.957-174.957a105,105,0,0,1-123.385-138.834,15,15,0,0,1,24.65-5.324l30.18,30.184,27.293-4.18,4.182-27.293-30.187-30.189a15,15,0,0,1,5.33-24.643,105,105,0,0,1,138.832,123.383l174.955,174.957a105,105,0,0,1,123.385,138.836,15,15,0,0,1-24.65,5.326l-30.182-30.187-27.293,4.182-4.182,27.291,30.188,30.182a15,15,0,0,1-5.322,24.65A105,105,0,0,1,17595,25150Zm-297.6,100.6a14.988,14.988,0,0,1-3.139-16.611l39.055-89.455,70.15,70.148-89.455,39.057a15,15,0,0,1-16.611-3.137Zm53.713-130.678,99.725-99.725,76.887,76.889L17428,25196.8Zm219.059-219.014,89.838-89.836,76.885,76.887-89.834,89.838Zm111.105-111.086,42.428-42.428a15,15,0,0,1,21.217,0l55.686,55.684a15,15,0,0,1,0,21.209l-42.437,42.432Z" transform="translate(-17293.002 -24743)"/>
</svg>
