<svg xmlns="http://www.w3.org/2000/svg" width="25" viewBox="0 0 508.33 363.43">
  <path id="Team" d="M24857.2,19546.4h-245.8v-14.988a103.888,103.888,0,0,1,68.9-97.713,72.67,72.67,0,1,1,107.789-.068,103.875,103.875,0,0,1,69.111,97.787l0,14.982Zm-266.127-64.682h0l-46.324-.061v-14.977a103.88,103.88,0,0,1,70.35-98.217,72.6,72.6,0,0,1,48.244-120.537c1.992-.168,4.033-.254,6.064-.254a72.575,72.575,0,0,1,61.967,34.793,102.611,102.611,0,0,0-92.947,139.477,134.239,134.239,0,0,0-47.326,59.758Zm286.477-.008a134.151,134.151,0,0,0-47.543-59.906l-.037-.014a102.605,102.605,0,0,0-93.037-139.33,72.6,72.6,0,0,1,61.973-34.8c2.006,0,4.047.084,6.063.252a72.6,72.6,0,0,1,48.232,120.551,103.887,103.887,0,0,1,70.355,98.215l.008,14.975-46.014.063Zm110.781-64.666h0l-44.367-.047a133.446,133.446,0,0,0-48.93-60.869,102.572,102.572,0,0,0-93.275-138.4,72.6,72.6,0,0,1,61.93-34.738c2.029,0,4.092.086,6.131.258a72.6,72.6,0,0,1,48.158,120.57,103.931,103.931,0,0,1,70.357,98.221l0,15.01h0Zm-508.326-.039h0v-15a103.926,103.926,0,0,1,70.357-98.227,72.6,72.6,0,0,1,48.166-120.549c2.037-.174,4.1-.26,6.131-.26a72.582,72.582,0,0,1,61.916,34.713,102.559,102.559,0,0,0-93.273,138.414,133.382,133.382,0,0,0-48.928,60.867Z" transform="translate(-24480.004 -19182.971)"/>
</svg>
