<?xml version="1.0" encoding="iso-8859-1"?>
<!-- Generator: Adobe Illustrator 16.0.0, SVG Export Plug-In . SVG Version: 6.00 Build 0)  -->
<!DOCTYPE svg PUBLIC "-//W3C//DTD SVG 1.1//EN" "http://www.w3.org/Graphics/SVG/1.1/DTD/svg11.dtd">
<svg version="1.1" id="Capa_1" xmlns="http://www.w3.org/2000/svg" xmlns:xlink="http://www.w3.org/1999/xlink" x="0px" y="0px"
	 width="503.335px" height="503.335px" viewBox="0 0 503.335 503.335" style="enable-background:new 0 0 503.335 503.335;"
	 xml:space="preserve">
<g>
	<g>
		<path d="M464.995,144.679c0-2.727-2.057-4.888-4.682-5.241c-23.118-39.361-57.039-71.618-97.681-92.699V5.375
			c0-2.968-2.41-5.375-5.376-5.375H152.921c-2.971,0-5.375,2.406-5.375,5.375V43.27c-44.331,21.24-81.18,55.616-105.583,98.03
			c-0.402,0.487-0.725,1.014-0.935,1.625c-19.819,35.063-31.187,75.502-31.187,118.58c0,133.35,108.484,241.83,241.832,241.83
			c44.123,0,85.5-11.938,121.153-32.674c1.386-0.209,2.567-0.902,3.391-1.964c70.223-42.361,117.277-119.381,117.277-207.203
			c0-41.463-10.503-80.516-28.972-114.666C464.821,146.167,464.995,145.442,464.995,144.679z M285.639,354.355
			c-2.661,1.989-14.083,5.339-32.362,5.339c-18.273,0-29.686-3.35-32.363-5.339v-23.433c9.484,5.689,20.526,9.019,32.363,9.019
			c11.842,0,22.887-3.339,32.362-9.029V354.355z M253.276,329.19c-23.659,0-43.693-15.781-50.192-37.354
			c0.026-0.21,0.123-0.399,0.123-0.62c0-1.176-0.452-2.184-1.079-3.066c-0.813-3.673-1.275-7.475-1.275-11.391
			c0-14,5.462-27.182,15.373-37.082c2.431-2.425,5.163-4.651,8.134-6.617c0.22-0.14,0.42-0.308,0.614-0.478
			c6.464-5.811,13.664-13.455,18.932-22.153c0.683-0.63,1.145-1.451,1.434-2.364c1.84-3.339,3.377-6.817,4.451-10.402
			c14.603,10.695,48.342,37.707,53.097,61.888c0.028,0.136,0.049,0.294,0.091,0.41c0.031,0.188,0.083,0.366,0.13,0.556
			c1.722,5.29,2.589,10.767,2.589,16.252C305.708,305.663,282.19,329.19,253.276,329.19z M139.419,233.932h67.492
			c-10.83,11.706-16.819,26.78-16.819,42.817c0,3.085,0.297,6.11,0.732,9.076h-51.405V233.932z M271.743,201.125
			c-0.031,0-0.058,0.017-0.094,0.017c-11.779-9.967-21.674-16.558-22.644-17.198c-1.606-1.052-3.643-1.175-5.354-0.328
			c-1.714,0.85-2.848,2.56-2.976,4.467c-0.287,4.436-1.83,8.832-3.946,13.037h-9.396v-24.578h53.077v24.578L271.743,201.125
			L271.743,201.125z M158.296,165.792V50.2c3.205-1.42,6.441-2.77,9.724-4.042v80.856c0,2.966,2.41,5.375,5.376,5.375h75.352
			c-4.939,1.909-8.462,6.683-8.462,12.289c0,7.279,5.924,13.2,13.2,13.2c7.287,0,13.208-5.926,13.208-13.2
			c0-5.606-3.523-10.38-8.468-12.289h75.361c2.966,0,5.374-2.41,5.374-5.375V47.577c4.373,1.791,8.704,3.669,12.925,5.714v112.495
			L158.296,165.792L158.296,165.792z M255.933,144.679c0,1.349-1.102,2.449-2.446,2.449c-1.354,0-2.46-1.1-2.46-2.449
			c0-1.357,1.105-2.457,2.46-2.457C254.831,142.222,255.933,143.321,255.933,144.679z M158.296,10.75h193.584v30.736
			c-4.24-1.94-8.557-3.767-12.93-5.468v-9.776c0-2.966-2.407-5.375-5.373-5.375h-57.823c-7.928-0.785-15.953-1.205-24.077-1.205
			c-8.134,0-16.163,0.42-24.086,1.205h-54.2c-2.968,0-5.375,2.409-5.375,5.375v8.354c-3.272,1.213-6.515,2.494-9.725,3.838
			L158.296,10.75L158.296,10.75z M49.322,150.054h98.218v21.118c0,2.968,2.405,5.375,5.375,5.375h63.673v24.577H190.25
			c-2.969,0-5.375,2.407-5.375,5.376c0,2.965,2.406,5.375,5.375,5.375h39.522c-3.536,4.468-7.3,8.331-10.512,11.31h-85.216
			c-2.968,0-5.375,2.407-5.375,5.375v62.645c0,2.971,2.407,5.375,5.375,5.375h59.279c2.026,6.1,4.96,11.779,8.638,16.903H26.562
			c-3.861-16.721-5.966-34.101-5.966-51.979C20.596,221.104,31.035,183.118,49.322,150.054z M183.588,482.326v-56.642
			c0-2.961-2.407-5.375-5.375-5.375c-2.974,0-5.375,2.414-5.375,5.375v53.024c-13.521-4.919-26.421-11.092-38.633-18.337v-55.559
			c0-24.269,19.737-44.006,44.008-44.006h34.103c7.746,9.076,34.814,9.622,40.972,9.622c6.151,0,33.224-0.556,40.966-9.622h28.441
			c24.263,0,44.007,19.737,44.007,44.006v56.977c-11.008,6.331-22.536,11.831-34.578,16.315v-51.213
			c0-2.972-2.415-5.376-5.375-5.376c-2.971,0-5.376,2.404-5.376,5.376v54.925c-22.006,6.976-45.417,10.761-69.694,10.761
			C227.982,492.573,205.122,488.977,183.588,482.326z M476.785,313.484H304.584c7.45-10.362,11.875-23.024,11.875-36.735
			c0-6.498-1.013-12.967-3.015-19.223c-3.033-16.018-16.236-32.396-29.911-45.645h36.795c2.966,0,5.374-2.409,5.374-5.375
			c0-2.968-2.408-5.375-5.374-5.375h-29.161v-24.578h66.09c2.971,0,5.376-2.407,5.376-5.375v-21.118h91.393
			c18.288,33.064,28.735,71.056,28.735,111.435C482.75,279.368,480.649,296.76,476.785,313.484z"/>
		<path d="M369.698,230.43h-27.696c-2.971,0-5.375,2.404-5.375,5.375v49.378c0,2.966,2.404,5.376,5.375,5.376h27.696
			c2.971,0,5.376-2.41,5.376-5.376v-49.378C375.074,232.83,372.669,230.43,369.698,230.43z M364.323,279.803h-16.945v-38.622h16.945
			V279.803z"/>
	</g>
</g>
<g>
</g>
<g>
</g>
<g>
</g>
<g>
</g>
<g>
</g>
<g>
</g>
<g>
</g>
<g>
</g>
<g>
</g>
<g>
</g>
<g>
</g>
<g>
</g>
<g>
</g>
<g>
</g>
<g>
</g>
</svg>
